<svg width="1020" height="66" xmlns="http://www.w3.org/2000/svg" fill="none">

 <g>
  <title>Layer 1</title>
  <path id="svg_1" fill="#656C73" d="m160.2,49.2c-3.5,-2 -6.3,-4.8 -8.3,-8.3c-2,-3.5 -3,-7.4 -3,-11.7c0,-4.3 1,-8.1 3,-11.7c2,-3.5 4.8,-6.3 8.3,-8.29999c3.5,-2 7.3,-3 11.4,-3c3.2,0 6.3,0.60001 9.1,1.70001c2.8,1.1 5.2,2.79998 7,4.79998l-3.7,3.7c-1.4,-1.7 -3.2,-3 -5.4,-4c-2.2,-0.9 -4.5,-1.4 -7,-1.4c-3.1,0 -5.9,0.7 -8.6,2.2c-2.7,1.5 -4.8,3.6 -6.4,6.3c-1.6,2.7 -2.4,5.9 -2.4,9.4c0,3.6 0.8,6.7 2.4,9.4c1.6,2.7 3.8,4.8 6.4,6.3c2.7,1.5 5.6,2.2 8.6,2.2c2.9,0 5.4,-0.5 7.4,-1.4c2,-0.9 3.7,-2.1 5.2,-3.7c1.1,-1.1 1.9,-2.5 2.6,-4.2c0.7,-1.6 1,-3.4 1.2,-5.3l-16.2,0l0,-4.8l21.1,0c0.2,1.1 0.3,2.2 0.3,3.2c0,2.7 -0.4,5.3 -1.3,7.9c-0.9,2.6 -2.2,4.8 -4.1,6.7c-4.1,4.4 -9.5,6.6 -16.1,6.6c-4.2,0.4 -8,-0.6 -11.5,-2.6z"/>
  <path id="svg_2" fill="#656C73" d="m204.6,50.1c-2.4,-1.4 -4.2,-3.4 -5.6,-5.8c-1.3,-2.5 -2,-5.2 -2,-8.3c0,-3 0.7,-5.8 2,-8.3c1.3,-2.5 3.2,-4.4 5.6,-5.8c2.4,-1.4 5.1,-2.1 8,-2.1c3,0 5.7,0.7 8.1,2.1c2.4,1.4 4.3,3.4 5.6,5.8c1.3,2.5 2,5.2 2,8.3c0,3 -0.7,5.8 -2,8.3c-1.3,2.5 -3.2,4.4 -5.6,5.8c-2.4,1.4 -5.1,2.1 -8.1,2.1c-2.9,0 -5.6,-0.7 -8,-2.1zm13.2,-4c1.6,-0.9 2.9,-2.3 3.8,-4c1,-1.7 1.4,-3.8 1.4,-6c0,-2.3 -0.5,-4.3 -1.4,-6c-1,-1.7 -2.2,-3.1 -3.8,-4c-1.6,-0.9 -3.3,-1.4 -5.2,-1.4c-1.8,0 -3.5,0.5 -5.1,1.4c-1.6,0.9 -2.9,2.3 -3.8,4c-1,1.7 -1.4,3.8 -1.4,6c0,2.3 0.5,4.3 1.4,6c1,1.7 2.2,3.1 3.8,4c1.6,0.9 3.3,1.4 5.1,1.4c1.9,0 3.6,-0.5 5.2,-1.4z"/>
  <path id="svg_3" fill="#656C73" d="m239.4,50.1c-2.4,-1.4 -4.2,-3.4 -5.6,-5.8c-1.3,-2.5 -2,-5.2 -2,-8.3c0,-3 0.7,-5.8 2,-8.3c1.3,-2.5 3.2,-4.4 5.6,-5.8c2.4,-1.4 5.1,-2.1 8,-2.1c3,0 5.7,0.7 8.1,2.1c2.4,1.4 4.3,3.4 5.6,5.8c1.3,2.5 2,5.2 2,8.3c0,3 -0.7,5.8 -2,8.3c-1.3,2.5 -3.2,4.4 -5.6,5.8c-2.4,1.4 -5.1,2.1 -8.1,2.1c-2.9,0 -5.6,-0.7 -8,-2.1zm13.2,-4c1.6,-0.9 2.9,-2.3 3.8,-4c1,-1.7 1.4,-3.8 1.4,-6c0,-2.3 -0.5,-4.3 -1.4,-6c-1,-1.7 -2.2,-3.1 -3.8,-4c-1.6,-0.9 -3.3,-1.4 -5.2,-1.4c-1.8,0 -3.5,0.5 -5.1,1.4c-1.6,0.9 -2.9,2.3 -3.8,4c-1,1.7 -1.4,3.8 -1.4,6c0,2.3 0.5,4.3 1.4,6c1,1.7 2.2,3.1 3.8,4c1.6,0.9 3.3,1.4 5.1,1.4c1.9,0 3.6,-0.5 5.2,-1.4z"/>
  <path id="svg_4" fill="#656C73" d="m272.8,62.8c-2.3,-1.8 -3.9,-3.8 -4.7,-6.1l4.8,-2c0.6,1.8 1.7,3.3 3.3,4.4c1.6,1.1 3.4,1.7 5.6,1.7c3.2,0 5.7,-0.9 7.5,-2.8c1.7,-1.9 2.6,-4.5 2.6,-7.9l0,-3.3l-0.2,0c-1,1.6 -2.4,2.8 -4.2,3.9c-1.8,1 -3.9,1.5 -6.3,1.5c-2.6,0 -5,-0.7 -7.2,-2.1c-2.2,-1.4 -4,-3.3 -5.3,-5.8c-1.3,-2.5 -2,-5.2 -2,-8.3c0,-3.1 0.7,-5.8 2,-8.3c1.3,-2.5 3.1,-4.4 5.3,-5.8c2.2,-1.4 4.6,-2.1 7.2,-2.1c2.3,0 4.4,0.5 6.3,1.5c1.8,1 3.3,2.3 4.2,3.9l0.2,0l0,-4.4l5,0l0,29.2c0,3.4 -0.7,6.2 -2,8.5c-1.3,2.3 -3.1,4.1 -5.4,5.2c-2.3,1.1 -4.8,1.7 -7.7,1.7c-3.7,0.1 -6.7,-0.8 -9,-2.6zm14.1,-16.7c1.5,-0.9 2.7,-2.2 3.7,-4c0.9,-1.7 1.4,-3.8 1.4,-6.1c0,-2.3 -0.5,-4.4 -1.4,-6.1c-0.9,-1.7 -2.1,-3.1 -3.7,-4c-1.5,-0.9 -3.2,-1.4 -5,-1.4c-1.8,0 -3.5,0.5 -5,1.4c-1.5,0.9 -2.7,2.3 -3.7,4c-0.9,1.7 -1.4,3.8 -1.4,6.1c0,2.3 0.5,4.4 1.4,6.1c0.9,1.7 2.1,3.1 3.7,4c1.5,0.9 3.2,1.4 5,1.4c1.8,0 3.5,-0.5 5,-1.4z"/>
  <path id="svg_5" fill="#656C73" d="m309.1,7.29999l-5.2,0l0,43.90001l5.2,0l0,-43.90001z"/>
  <path id="svg_6" fill="#656C73" d="m321.4,50.1c-2.3,-1.4 -4.1,-3.3 -5.4,-5.8c-1.3,-2.5 -2,-5.2 -2,-8.3c0,-2.9 0.6,-5.7 1.8,-8.1c1.2,-2.5 3,-4.4 5.2,-5.9c2.3,-1.5 4.9,-2.2 7.8,-2.2c2.9,0 5.5,0.7 7.8,2c2.2,1.3 3.9,3.2 5.1,5.6c1.2,2.4 1.8,5.2 1.8,8.3c0,0.6 0,1 -0.1,1.2l-24.2,0c0.1,2.3 0.6,4.2 1.7,5.8c1,1.6 2.3,2.8 3.8,3.5c1.5,0.8 3.1,1.2 4.8,1.2c3.8,0 6.8,-1.9 8.9,-5.6l4.6,2.2c-1.3,2.5 -3.1,4.4 -5.4,5.9c-2.3,1.5 -5.1,2.2 -8.3,2.2c-2.9,0.1 -5.5,-0.6 -7.9,-2zm16.7,-17.5c-0.1,-1.2 -0.4,-2.5 -1,-3.7c-0.6,-1.2 -1.6,-2.3 -3,-3.1c-1.4,-0.9 -3.1,-1.3 -5.2,-1.3c-2.3,0 -4.3,0.7 -6,2.2c-1.7,1.5 -2.7,3.4 -3.2,5.9l18.4,0z"/>
  <path id="svg_7" fill="#656C73" d="m363.6,7.29999l13.3,0c4.5,0 8.4,0.89999 11.8,2.80001c3.4,1.9 5.9,4.4 7.7,7.8c1.8,3.3 2.7,7.1 2.7,11.4c0,4.3 -0.9,8.1 -2.7,11.4c-1.8,3.3 -4.4,5.9 -7.7,7.8c-3.4,1.9 -7.3,2.8 -11.8,2.8l-13.3,0l0,-44.00001zm13.3,39.00001c5.2,0 9.3,-1.5 12.3,-4.5c3,-3 4.5,-7.2 4.5,-12.5c0,-5.4 -1.5,-9.5 -4.5,-12.5c-3,-3 -7.1,-4.5 -12.3,-4.5l-8.1,0l0,34l8.1,0z"/>
  <path id="svg_8" fill="#656C73" d="m410.9,50.1c-2.3,-1.4 -4.1,-3.3 -5.4,-5.8c-1.3,-2.5 -2,-5.2 -2,-8.3c0,-2.9 0.6,-5.7 1.8,-8.1c1.2,-2.5 3,-4.4 5.2,-5.9c2.3,-1.5 4.9,-2.2 7.8,-2.2c2.9,0 5.5,0.7 7.8,2c2.2,1.3 3.9,3.2 5.1,5.6c1.2,2.4 1.8,5.2 1.8,8.3c0,0.6 0,1 -0.1,1.2l-24.2,0c0.1,2.3 0.6,4.2 1.7,5.8c1,1.6 2.3,2.8 3.8,3.5c1.5,0.8 3.1,1.2 4.8,1.2c3.8,0 6.8,-1.9 8.9,-5.6l4.6,2.2c-1.3,2.5 -3.1,4.4 -5.4,5.9c-2.3,1.5 -5.1,2.2 -8.3,2.2c-3,0.1 -5.6,-0.6 -7.9,-2zm16.7,-17.5c-0.1,-1.2 -0.4,-2.5 -1,-3.7c-0.6,-1.2 -1.6,-2.3 -3,-3.1c-1.4,-0.9 -3.1,-1.3 -5.2,-1.3c-2.3,0 -4.3,0.7 -6,2.2c-1.7,1.5 -2.7,3.4 -3.2,5.9l18.4,0z"/>
  <path id="svg_9" fill="#656C73" d="m434.3,20.8l5.7,0l9.3,24.3l0.1,0l9.5,-24.3l5.5,0l-12.5,30.4l-5.3,0l-12.3,-30.4z"/>
  <path id="svg_10" fill="#656C73" d="m473.9,50.1c-2.3,-1.4 -4.1,-3.3 -5.4,-5.8c-1.3,-2.5 -2,-5.2 -2,-8.3c0,-2.9 0.6,-5.7 1.8,-8.1c1.2,-2.5 3,-4.4 5.2,-5.9c2.3,-1.5 4.9,-2.2 7.8,-2.2c2.9,0 5.5,0.7 7.8,2c2.2,1.3 3.9,3.2 5.1,5.6c1.2,2.4 1.8,5.2 1.8,8.3c0,0.6 0,1 -0.1,1.2l-24.2,0c0.1,2.3 0.6,4.2 1.7,5.8c1,1.6 2.3,2.8 3.8,3.5c1.5,0.8 3.1,1.2 4.8,1.2c3.8,0 6.8,-1.9 8.9,-5.6l4.6,2.2c-1.3,2.5 -3.1,4.4 -5.4,5.9c-2.3,1.5 -5.1,2.2 -8.3,2.2c-2.9,0.1 -5.6,-0.6 -7.9,-2zm16.7,-17.5c-0.1,-1.2 -0.4,-2.5 -1,-3.7c-0.6,-1.2 -1.6,-2.3 -3,-3.1c-1.4,-0.9 -3.1,-1.3 -5.2,-1.3c-2.3,0 -4.3,0.7 -6,2.2c-1.7,1.5 -2.7,3.4 -3.2,5.9l18.4,0z"/>
  <path id="svg_11" fill="#656C73" d="m506.6,7.29999l-5.2,0l0,43.90001l5.2,0l0,-43.90001z"/>
  <path id="svg_12" fill="#656C73" d="m519.1,50.1c-2.4,-1.4 -4.2,-3.4 -5.6,-5.8c-1.3,-2.5 -2,-5.2 -2,-8.3c0,-3 0.7,-5.8 2,-8.3c1.3,-2.5 3.2,-4.4 5.6,-5.8c2.4,-1.4 5,-2.1 8,-2.1c3,0 5.7,0.7 8.1,2.1c2.4,1.4 4.3,3.4 5.6,5.8c1.3,2.5 2,5.2 2,8.3c0,3 -0.7,5.8 -2,8.3c-1.3,2.5 -3.2,4.4 -5.6,5.8c-2.4,1.4 -5.1,2.1 -8.1,2.1c-3,0 -5.6,-0.7 -8,-2.1zm13.2,-4c1.6,-0.9 2.9,-2.3 3.8,-4c1,-1.7 1.4,-3.8 1.4,-6c0,-2.3 -0.5,-4.3 -1.4,-6c-1,-1.7 -2.2,-3.1 -3.8,-4c-1.6,-0.9 -3.3,-1.4 -5.2,-1.4c-1.8,0 -3.5,0.5 -5.1,1.4c-1.6,0.9 -2.9,2.3 -3.8,4c-1,1.7 -1.4,3.8 -1.4,6c0,2.3 0.5,4.3 1.4,6c1,1.7 2.2,3.1 3.8,4c1.6,0.9 3.3,1.4 5.1,1.4c1.9,0 3.6,-0.5 5.2,-1.4z"/>
  <path id="svg_13" fill="#656C73" d="m547.5,20.8l5,0l0,4.5l0.2,0c1,-1.6 2.4,-2.9 4.2,-3.9c1.8,-1 4,-1.6 6.4,-1.6c2.6,0 5,0.7 7.2,2.1c2.2,1.4 4,3.3 5.3,5.8c1.3,2.5 2,5.2 2,8.3c0,3.1 -0.7,5.8 -2,8.3c-1.3,2.5 -3.1,4.4 -5.3,5.8c-2.2,1.4 -4.6,2.1 -7.2,2.1c-2.4,0 -4.6,-0.5 -6.4,-1.6c-1.9,-1 -3.3,-2.4 -4.2,-4l-0.2,0l0.2,4.2l0,13.6l-5.2,0l0,-43.6zm20.1,25.3c1.5,-0.9 2.8,-2.3 3.7,-4c0.9,-1.7 1.4,-3.8 1.4,-6c0,-2.3 -0.5,-4.3 -1.4,-6c-0.9,-1.7 -2.1,-3.1 -3.7,-4c-1.5,-0.9 -3.2,-1.4 -5,-1.4c-1.8,0 -3.5,0.5 -5,1.4c-1.5,0.9 -2.8,2.2 -3.7,4c-0.9,1.7 -1.4,3.8 -1.4,6.1c0,2.3 0.5,4.3 1.4,6.1c0.9,1.8 2.1,3.1 3.7,4c1.5,0.9 3.2,1.4 5,1.4c1.8,0 3.4,-0.7 5,-1.6z"/>
  <path id="svg_14" fill="#656C73" d="m590,50.1c-2.3,-1.4 -4.1,-3.3 -5.4,-5.8c-1.3,-2.5 -2,-5.2 -2,-8.3c0,-2.9 0.6,-5.7 1.8,-8.1c1.2,-2.5 3,-4.4 5.2,-5.9c2.3,-1.5 4.9,-2.2 7.8,-2.2c2.9,0 5.5,0.7 7.8,2c2.2,1.3 3.9,3.2 5.1,5.6c1.2,2.4 1.8,5.2 1.8,8.3c0,0.6 0,1 -0.1,1.2l-24.2,0c0.1,2.3 0.6,4.2 1.7,5.8c1,1.6 2.3,2.8 3.8,3.5c1.5,0.8 3.1,1.2 4.8,1.2c3.8,0 6.8,-1.9 8.9,-5.6l4.6,2.2c-1.3,2.5 -3.1,4.4 -5.4,5.9c-2.3,1.5 -5.1,2.2 -8.3,2.2c-2.9,0.1 -5.6,-0.6 -7.9,-2zm16.7,-17.5c-0.1,-1.2 -0.4,-2.5 -1,-3.7c-0.6,-1.2 -1.6,-2.3 -3,-3.1c-1.4,-0.9 -3.1,-1.3 -5.2,-1.3c-2.3,0 -4.3,0.7 -5.9,2.2c-1.7,1.5 -2.7,3.4 -3.2,5.9l18.3,0z"/>
  <path id="svg_15" fill="#656C73" d="m617.5,20.8l5,0l0,5l0.2,0c0.6,-1.7 1.7,-3.1 3.5,-4.2c1.8,-1.1 3.6,-1.7 5.3,-1.7c1.3,0 2.5,0.2 3.6,0.6l0,5.6c-1.1,-0.6 -2.5,-0.9 -4.3,-0.9c-1.4,0 -2.8,0.4 -4,1.3c-1.2,0.8 -2.2,2 -3,3.4c-0.7,1.4 -1.1,2.9 -1.1,4.6l0,17l-5.2,0l0,-30.7z"/>
  <path id="svg_16" fill="#656C73" d="m657.9,50.8c-2.1,-0.9 -3.9,-2.3 -5.5,-4c-1.6,-1.8 -2.7,-3.9 -3.4,-6.5l5,-2c0.7,2.6 2,4.8 3.9,6.4c1.9,1.7 4.1,2.5 6.6,2.5c2.6,0 4.7,-0.7 6.5,-2.1c1.8,-1.4 2.6,-3.2 2.6,-5.6c0,-2 -0.7,-3.7 -2.2,-5.1c-1.5,-1.3 -3.9,-2.6 -7.3,-3.7l-2.8,-1c-3.1,-1.1 -5.6,-2.6 -7.6,-4.4c-2,-1.8 -2.9,-4.3 -2.9,-7.5c0,-2.1 0.6,-4 1.7,-5.8c1.1,-1.8 2.7,-3.19999 4.8,-4.29999c2,-1.1 4.3,-1.60003 6.8,-1.60003c2.5,0 4.8,0.50002 6.7,1.40002c1.9,0.9 3.4,2.10002 4.5,3.4c1.1,1.4 1.9,2.7 2.3,4l-4.8,2.1c-0.5,-1.6 -1.4,-2.9 -2.8,-4.1c-1.4,-1.2 -3.3,-1.8 -5.7,-1.8c-2.2,0 -4.2,0.6 -5.8,1.9c-1.6,1.3 -2.4,2.9 -2.4,4.8c0,1.7 0.7,3.1 2,4.2c1.3,1.1 3.4,2.1 6.1,3l2.8,1c3.7,1.3 6.6,3 8.7,5.1c2.1,2 3.2,4.8 3.2,8.3c0,2.8 -0.7,5.2 -2.2,7.1c-1.5,1.9 -3.3,3.3 -5.5,4.2c-2.2,0.9 -4.5,1.4 -6.9,1.4c-2.2,0.1 -4.3,-0.3 -6.4,-1.3z"/>
  <path id="svg_17" fill="#656C73" d="m691.6,51.6c-1,-0.4 -1.9,-1 -2.7,-1.7c-0.8,-0.8 -1.4,-1.7 -1.8,-2.8c-0.4,-1.1 -0.6,-2.3 -0.6,-3.8l0,-17.8l-5.4,0l0,-4.7l5.4,0l0,-9.1l5.2,0l0,9.1l7.5,0l0,4.7l-7.5,0l0,16.6c0,1.8 0.3,3.1 1,3.9c0.7,0.9 1.8,1.4 3.2,1.4c1.3,0 2.4,-0.3 3.3,-0.9l0,5c-0.7,0.2 -1.3,0.4 -1.9,0.5c-0.6,0.1 -1.4,0.2 -2.4,0.2c-1.2,0 -2.3,-0.2 -3.3,-0.6z"/>
  <path id="svg_18" fill="#656C73" d="m707.3,49c-1.9,-2.2 -2.9,-5.2 -2.9,-9l0,-19.1l5.2,0l0,18.3c0,5.6 2.5,8.4 7.5,8.4c1.7,0 3.2,-0.5 4.5,-1.4c1.3,-0.9 2.4,-2.2 3.1,-3.7c0.7,-1.5 1.1,-3.1 1.1,-4.8l0,-16.8l5.2,0l0,30.4l-4.9,0l0,-4.5l-0.2,0c-0.9,1.6 -2.3,2.9 -4.1,3.9c-1.8,1.1 -3.8,1.6 -5.9,1.6c-3.8,-0.1 -6.7,-1.2 -8.6,-3.3z"/>
  <path id="svg_19" fill="#656C73" d="m743.2,50.1c-2.2,-1.4 -4,-3.3 -5.3,-5.8c-1.3,-2.5 -2,-5.2 -2,-8.3c0,-3.1 0.7,-5.8 2,-8.3c1.3,-2.5 3.1,-4.4 5.3,-5.8c2.2,-1.4 4.6,-2.1 7.2,-2.1c2.4,0 4.5,0.5 6.4,1.6c1.9,1 3.3,2.3 4.2,3.9l0.2,0l-0.2,-4.2l0,-13.80001l5.2,0l0,43.90001l-4.9,0l0,-4.5l-0.2,0c-0.9,1.6 -2.4,2.9 -4.2,4c-1.9,1 -4,1.6 -6.4,1.6c-2.7,-0.1 -5.1,-0.8 -7.3,-2.2zm13,-4c1.5,-0.9 2.8,-2.3 3.7,-4c0.9,-1.8 1.4,-3.8 1.4,-6.1c0,-2.3 -0.5,-4.4 -1.4,-6.1c-0.9,-1.7 -2.1,-3.1 -3.7,-4c-1.5,-0.9 -3.2,-1.4 -5,-1.4c-1.8,0 -3.5,0.5 -5,1.4c-1.5,0.9 -2.8,2.3 -3.7,4c-0.9,1.7 -1.4,3.8 -1.4,6c0,2.3 0.5,4.3 1.4,6c0.9,1.7 2.1,3.1 3.7,4c1.5,0.9 3.2,1.4 5,1.4c1.8,0.2 3.5,-0.3 5,-1.2z"/>
  <path id="svg_20" fill="#656C73" d="m778.6,50.1c-2.3,-1.4 -4.1,-3.3 -5.4,-5.8c-1.3,-2.5 -2,-5.2 -2,-8.3c0,-2.9 0.6,-5.7 1.8,-8.1c1.2,-2.5 3,-4.4 5.2,-5.9c2.3,-1.5 4.9,-2.2 7.8,-2.2c2.9,0 5.5,0.7 7.8,2c2.2,1.3 3.9,3.2 5.1,5.6c1.2,2.4 1.8,5.2 1.8,8.3c0,0.6 0,1 -0.1,1.2l-24.2,0c0.1,2.3 0.6,4.2 1.7,5.8c1,1.6 2.3,2.8 3.8,3.5c1.5,0.8 3.1,1.2 4.8,1.2c3.8,0 6.8,-1.9 8.9,-5.6l4.6,2.2c-1.3,2.5 -3.1,4.4 -5.4,5.9c-2.3,1.5 -5.1,2.2 -8.3,2.2c-2.9,0.1 -5.6,-0.6 -7.9,-2zm16.7,-17.5c-0.1,-1.2 -0.4,-2.5 -1,-3.7c-0.6,-1.2 -1.6,-2.3 -3,-3.1c-1.4,-0.9 -3.1,-1.3 -5.2,-1.3c-2.3,0 -4.3,0.7 -5.9,2.2c-1.7,1.5 -2.7,3.4 -3.2,5.9l18.3,0z"/>
  <path id="svg_21" fill="#656C73" d="m806.1,20.8l5,0l0,4.5l0.2,0c0.9,-1.6 2.2,-2.9 4.1,-3.9c1.8,-1.1 3.8,-1.6 5.9,-1.6c3.7,0 6.6,1.1 8.5,3.3c1.9,2.2 2.9,5.1 2.9,8.9l0,19.3l-5.2,0l0,-18.5c0,-5.5 -2.6,-8.2 -7.7,-8.2c-1.6,0 -3.1,0.5 -4.4,1.4c-1.3,0.9 -2.3,2.2 -3,3.7c-0.7,1.5 -1.1,3.1 -1.1,4.8l0,16.8l-5.2,0l0,-30.5z"/>
  <path id="svg_22" fill="#656C73" d="m846.2,51.6c-1,-0.4 -1.9,-1 -2.7,-1.7c-0.8,-0.8 -1.4,-1.7 -1.8,-2.8c-0.4,-1.1 -0.6,-2.3 -0.6,-3.8l0,-17.8l-5.4,0l0,-4.7l5.4,0l0,-9.1l5.2,0l0,9.1l7.5,0l0,4.7l-7.5,0l0,16.6c0,1.8 0.3,3.1 1,3.9c0.7,0.9 1.8,1.4 3.2,1.4c1.3,0 2.4,-0.3 3.3,-0.9l0,5c-0.7,0.2 -1.3,0.4 -1.9,0.5c-0.6,0.1 -1.4,0.2 -2.4,0.2c-1.1,0 -2.2,-0.2 -3.3,-0.6z"/>
  <path id="svg_23" fill="#656C73" d="m881.7,49.2c-3.5,-2 -6.2,-4.8 -8.2,-8.3c-2,-3.5 -3,-7.4 -3,-11.7c0,-4.3 1,-8.1 3,-11.7c2,-3.5 4.7,-6.3 8.2,-8.29999c3.5,-2 7.3,-3 11.5,-3c3.3,0 6.3,0.59997 9.1,1.89997c2.7,1.2 5.1,3.00002 7,5.30002l-3.7,3.6c-1.6,-2 -3.5,-3.5 -5.5,-4.4c-2,-0.9 -4.3,-1.4 -6.9,-1.4c-3.1,0 -6.1,0.7 -8.7,2.2c-2.7,1.5 -4.8,3.6 -6.4,6.3c-1.6,2.7 -2.4,5.9 -2.4,9.4c0,3.6 0.8,6.7 2.4,9.4c1.6,2.7 3.7,4.8 6.4,6.3c2.7,1.5 5.6,2.2 8.7,2.2c5.4,0 9.9,-2.2 13.6,-6.6l3.7,3.7c-2,2.4 -4.5,4.3 -7.5,5.7c-3,1.4 -6.3,2.1 -9.9,2.1c-4,0.3 -7.9,-0.7 -11.4,-2.7z"/>
  <path id="svg_24" fill="#656C73" d="m920.9,7.29999l-5.2,0l0,43.90001l5.2,0l0,-43.90001z"/>
  <path id="svg_25" fill="#656C73" d="m930.6,49c-1.9,-2.2 -2.9,-5.2 -2.9,-9l0,-19.1l5.2,0l0,18.3c0,5.6 2.5,8.4 7.5,8.4c1.7,0 3.2,-0.5 4.5,-1.4c1.3,-0.9 2.4,-2.2 3.1,-3.7c0.7,-1.5 1.1,-3.1 1.1,-4.8l0,-16.8l5.2,0l0,30.4l-4.9,0l0,-4.5l-0.2,0c-0.9,1.6 -2.3,2.9 -4.1,3.9c-1.8,1.1 -3.8,1.6 -5.9,1.6c-3.8,-0.1 -6.6,-1.2 -8.6,-3.3z"/>
  <path id="svg_26" fill="#656C73" d="m970.7,50.7c-1.9,-1 -3.3,-2.4 -4.2,-4l-0.2,0l0,4.5l-5,0l0,-43.90001l5.2,0l0,13.80001l-0.2,4.2l0.2,0c1,-1.6 2.4,-2.9 4.2,-3.9c1.8,-1 4,-1.6 6.4,-1.6c2.6,0 5,0.7 7.2,2.1c2.2,1.4 4,3.3 5.3,5.8c1.3,2.5 2,5.2 2,8.3c0,3.1 -0.7,5.8 -2,8.3c-1.3,2.5 -3.1,4.4 -5.3,5.8c-2.2,1.4 -4.6,2.1 -7.2,2.1c-2.4,0 -4.5,-0.5 -6.4,-1.5zm10.7,-4.6c1.5,-0.9 2.8,-2.3 3.7,-4c0.9,-1.7 1.4,-3.8 1.4,-6c0,-2.3 -0.5,-4.3 -1.4,-6c-0.9,-1.7 -2.1,-3.1 -3.7,-4c-1.5,-0.9 -3.2,-1.4 -5,-1.4c-1.8,0 -3.5,0.5 -5,1.4c-1.5,0.9 -2.8,2.2 -3.7,4c-0.9,1.7 -1.4,3.8 -1.4,6.1c0,2.3 0.5,4.3 1.4,6.1c0.9,1.8 2.1,3.1 3.7,4c1.5,0.9 3.2,1.4 5,1.4c1.8,-0.2 3.4,-0.7 5,-1.6z"/>
  <path id="svg_27" fill="#656C73" d="m999.1,49.8c-2.2,-1.6 -3.8,-3.7 -4.7,-6.1l4.6,-2c0.8,1.9 2,3.4 3.5,4.4c1.5,1 3.1,1.5 4.9,1.5c2,0 3.6,-0.4 4.9,-1.3c1.3,-0.9 1.9,-1.9 1.9,-3.1c0,-1.2 -0.5,-2.2 -1.4,-2.9c-1,-0.8 -2.6,-1.5 -4.9,-2l-4.2,-1c-2.3,-0.5 -4.2,-1.5 -5.9,-2.9c-1.6,-1.4 -2.4,-3.2 -2.4,-5.5c0,-1.9 0.5,-3.5 1.6,-4.8c1.1,-1.4 2.5,-2.4 4.3,-3.1c1.8,-0.7 3.8,-1 5.9,-1c2.6,0 5,0.6 7.1,1.8c2.1,1.2 3.7,2.9 4.6,5.1l-4.6,2c-0.7,-1.5 -1.6,-2.6 -3,-3.3c-1.3,-0.7 -2.8,-1 -4.4,-1c-1.6,0 -3,0.4 -4.3,1.2c-1.3,0.8 -1.9,1.8 -1.9,3c0,1.1 0.4,1.9 1.3,2.5c0.8,0.6 2.2,1.2 4,1.7l4.5,1.1c3,0.8 5.3,1.9 6.8,3.5c1.5,1.5 2.2,3.4 2.2,5.5c0,1.8 -0.5,3.4 -1.5,4.8c-1,1.4 -2.5,2.6 -4.3,3.4c-1.8,0.8 -3.9,1.2 -6.3,1.2c-3.3,-0.3 -6,-1.1 -8.3,-2.7z"/>
  <path id="svg_28" fill="#666666" d="m29.3999,29.9l19.7,-11.4c4.6,-2.7 6.2,-8.60001 3.5,-13.20001c-2.7,-4.6 -8.6,-6.2 -13.2,-3.5l-34,19.60001l24,8.5z"/>
  <path id="svg_29" fill="#666666" d="m44.1999,59.1c3.3,0 6.6,-1.7 8.4,-4.8c2.7,-4.6 1.1,-10.5 -3.5,-13.2l-34,-19.6c-4.6,-2.7 -10.50003,-1.1 -13.20003,3.5c-2.7,4.6 -1.1,10.5 3.5,13.2l34.00003,19.6c1.5,0.9 3.2,1.3 4.8,1.3z"/>
  <path id="svg_30" fill="#666666" d="m77.0001,59.1c1.6,0 3.3,-0.4 4.8,-1.3l33.9999,-19.6l-23.6999,-8.7l-20,11.5c-4.6,2.7 -6.2,8.6 -3.5,13.2c1.8,3.2 5.1,4.9 8.4,4.9z"/>
  <path id="svg_31" fill="#666666" d="m111,39.5c3.3,0 6.6,-1.7 8.4,-4.8c2.7,-4.6 1.1,-10.5 -3.5,-13.2l-33.9998,-19.60001c-4.6,-2.7 -10.5,-1.09997 -13.2,3.50003c-2.7,4.59998 -1.1,10.49998 3.5,13.19998l33.9998,19.6c1.5,0.9 3.2,1.3 4.8,1.3z"/>
 </g>
</svg>